<?xml version="1.0" standalone="no"?>
<!DOCTYPE svg PUBLIC "-//W3C//DTD SVG 20010904//EN"
 "http://www.w3.org/TR/2001/REC-SVG-20010904/DTD/svg10.dtd">
<svg version="1.0" xmlns="http://www.w3.org/2000/svg"
 width="512.000000pt" height="512.000000pt" viewBox="0 0 512.000000 512.000000"
 preserveAspectRatio="xMidYMid meet">
<metadata>
Created by potrace 1.14, written by Peter Selinger 2001-2017
</metadata>
<g transform="translate(0.000000,512.000000) scale(0.100000,-0.100000)"
fill="#000000" stroke="none">
<path d="M2375 5111 c-2 -3 -25 -5 -52 -5 -26 1 -52 -1 -58 -4 -5 -4 -26 -7
-45 -8 -19 -1 -48 -5 -65 -9 -16 -3 -50 -8 -75 -11 -25 -3 -47 -10 -48 -15 -2
-5 -8 -7 -12 -4 -11 7 -219 -48 -285 -75 -53 -22 -121 -44 -127 -42 -5 1 -8
-2 -8 -6 0 -5 -6 -9 -12 -9 -19 0 -152 -64 -160 -77 -4 -6 -8 -8 -8 -3 0 7
-60 -20 -70 -32 -3 -3 -25 -16 -50 -29 -103 -52 -359 -228 -368 -253 -2 -5
-10 -9 -18 -9 -9 0 -12 -4 -9 -10 3 -5 2 -10 -2 -10 -5 0 -22 -12 -39 -27 -17
-16 -47 -43 -67 -60 -21 -18 -36 -33 -35 -33 2 0 -26 -30 -62 -68 -118 -122
-256 -303 -325 -426 -16 -29 -35 -60 -41 -67 -6 -8 -17 -29 -25 -46 -8 -18
-17 -33 -21 -33 -5 0 -7 -3 -6 -7 1 -5 -15 -42 -34 -83 -53 -112 -81 -180 -81
-196 0 -8 -4 -14 -9 -14 -4 0 -7 -3 -6 -7 0 -5 -2 -15 -5 -23 -15 -37 -37
-111 -35 -118 1 -4 -3 -16 -9 -28 -7 -11 -14 -34 -17 -50 -2 -16 -5 -29 -6
-29 -1 0 -3 -7 -5 -15 -46 -227 -46 -226 -62 -380 -8 -79 -8 -382 0 -465 11
-116 19 -170 25 -180 3 -5 6 -21 6 -36 1 -15 4 -30 8 -34 4 -4 4 -13 1 -21 -3
-8 0 -20 6 -28 6 -7 9 -15 6 -18 -3 -3 6 -44 20 -92 14 -47 25 -95 25 -106 0
-11 4 -20 8 -20 5 0 15 -25 22 -55 7 -31 17 -58 22 -61 4 -3 8 -12 8 -20 0 -8
9 -34 20 -56 11 -23 20 -48 20 -55 0 -7 4 -13 9 -13 5 0 11 -13 14 -29 3 -16
13 -36 22 -45 9 -9 14 -16 10 -16 -7 0 39 -89 67 -131 9 -14 15 -29 11 -33 -3
-3 -2 -6 4 -6 6 0 18 -16 27 -35 9 -19 22 -35 28 -35 6 0 8 -3 5 -6 -7 -7 100
-166 115 -172 4 -2 8 -8 8 -14 0 -5 6 -15 13 -23 6 -7 32 -37 57 -66 53 -65
296 -309 306 -309 4 0 17 -11 30 -26 13 -14 24 -22 24 -18 0 4 8 -2 18 -13 9
-10 40 -34 67 -53 28 -19 52 -36 55 -40 24 -29 440 -260 440 -244 0 3 12 -1
27 -9 34 -18 100 -45 126 -52 4 -2 9 -4 12 -5 3 -1 8 -3 13 -4 4 -1 44 -14 89
-29 45 -15 91 -27 102 -27 11 0 22 -4 25 -8 2 -4 19 -9 37 -10 18 -2 36 -6 39
-10 3 -4 14 -8 25 -8 22 -2 77 -11 114 -18 33 -7 107 -17 176 -23 83 -7 428
-10 440 -4 5 3 28 6 50 8 60 5 106 10 145 18 19 3 46 8 60 10 14 2 56 10 93
19 38 9 73 14 78 10 5 -3 9 0 9 5 0 6 7 11 17 11 28 0 306 97 365 128 32 16
55 24 51 18 -5 -8 -3 -8 8 0 8 7 53 32 101 57 47 25 111 61 141 80 30 20 58
33 61 30 3 -4 6 -2 6 4 0 6 19 22 43 36 23 14 51 33 62 41 11 9 45 35 75 58
30 23 62 50 71 60 9 10 19 18 23 18 4 0 19 12 34 27 16 16 60 58 99 95 39 38
70 68 68 68 -2 0 17 21 41 47 25 27 64 73 87 103 23 30 52 66 65 80 12 14 22
30 22 37 0 6 4 13 9 15 14 5 114 165 167 268 27 52 53 98 57 101 5 3 8 9 7 13
0 3 9 28 20 54 12 26 23 55 25 66 3 10 8 23 13 30 5 6 22 49 36 96 15 47 30
92 33 100 13 33 32 106 39 145 3 17 8 37 11 45 3 8 7 22 8 30 1 8 5 29 8 45 3
17 9 50 12 75 4 25 9 54 11 65 9 47 18 220 17 340 0 111 -8 300 -13 300 -2 0
-3 9 -13 85 -4 25 -9 56 -12 70 -3 14 -8 39 -11 55 -2 17 -9 45 -14 63 -4 17
-6 32 -3 32 3 0 0 6 -6 14 -6 8 -11 18 -10 22 1 5 0 11 -1 14 -1 3 -3 12 -5
21 -5 29 -86 261 -108 313 -44 101 -151 303 -205 387 -40 63 -114 166 -140
196 -15 17 -38 47 -52 65 -35 45 -254 265 -314 313 -26 22 -56 47 -66 57 -10
9 -21 14 -24 11 -3 -4 -6 -1 -6 5 0 25 -421 282 -463 282 -9 0 -17 3 -19 8 -6
13 -136 69 -150 64 -5 -1 -8 3 -8 10 0 6 -3 9 -6 5 -3 -3 -26 3 -50 13 -24 11
-44 17 -44 14 0 -2 -10 1 -22 7 -13 7 -38 16 -58 21 -55 14 -65 16 -70 18 -3
1 -9 3 -15 5 -5 1 -12 3 -15 5 -3 1 -14 4 -25 6 -11 1 -31 6 -45 9 -26 7 -44
11 -95 19 -16 3 -43 8 -59 11 -15 3 -49 8 -75 10 -25 2 -46 5 -46 5 0 10 -464
20 -470 11z"/>
</g>
</svg>
