<?xml version="1.0" encoding="UTF-8" standalone="no" ?>
<!DOCTYPE svg PUBLIC "-//W3C//DTD SVG 1.1//EN" "http://www.w3.org/Graphics/SVG/1.1/DTD/svg11.dtd">
<svg xmlns="http://www.w3.org/2000/svg" xmlns:xlink="http://www.w3.org/1999/xlink" version="1.1" width="1100" height="300" viewBox="0 0 1100 300" xml:space="preserve">
<desc>Created with Fabric.js 5.3.0</desc>
<defs>
</defs>
<g transform="matrix(1 0 0 1.056099461 1001.5033150021 194.768556471)" id="9kqtJWHbMs_PO1GiY3CtT"  >
<path style="stroke: rgb(255,255,255); stroke-width: 0; stroke-dasharray: none; stroke-linecap: butt; stroke-dashoffset: 0; stroke-linejoin: miter; stroke-miterlimit: 4; fill: rgb(255,255,255); fill-rule: nonzero; opacity: 1;" vector-effect="non-scaling-stroke"  transform=" translate(0.0000027778, -0.000005)" d="M 69.66568 -66.11104 L 58.16126 -26.809310000000004 L -22.369709999999998 -26.809310000000004 C -22.369709999999998 -26.809310000000004 -29.44936 -24.154440000000005 -29.44936 -18.402230000000003 C -29.44936 -12.650020000000003 -29.44936 25.403079999999996 -29.44936 25.403079999999996 C -29.44936 25.403079999999996 -26.79449 30.319989999999997 -22.369709999999998 30.319989999999997 C -17.94493 30.319989999999997 58.16126 30.319989999999997 58.16126 30.319989999999997 L 81.17011 66.11105 L -65.29007000000001 66.11105 C -65.29007000000001 66.11105 -82.54671000000002 60.801320000000004 -80.77680000000001 51.06680000000001 C -81.66176000000002 40.44733000000001 -80.77680000000001 -45.393379999999986 -80.77680000000001 -45.393379999999986 C -80.77680000000001 -45.393379999999986 -82.10423000000002 -61.686269999999986 -67.94494 -66.11103999999999 C -52.45821 -66.11103999999999 69.66568000000001 -66.11103999999999 69.66568000000001 -66.11103999999999 z" stroke-linecap="round" />
</g>
<g transform="matrix(1 0 0 1 860.2963438568 65.8719519617)" id="b66cy1k-v55jGNe6AmNb5"  >
<path style="stroke: rgb(0,0,0); stroke-width: 3; stroke-dasharray: none; stroke-linecap: butt; stroke-dashoffset: 0; stroke-linejoin: miter; stroke-miterlimit: 4; fill: rgb(255,255,255); fill-rule: nonzero; opacity: 1;" vector-effect="non-scaling-stroke"  transform=" translate(-0.000005, -0.000005)" d="M 0.48171 -31.46341 L 26.83537 -16.341459999999998 L 26.83537 15.853660000000005 L 0.48170999999999964 31.463420000000006 L -26.83536 15.853660000000007 L -26.83536 -16.341459999999998 z" stroke-linecap="round" />
</g>
<g transform="matrix(1 0 0 0.9204544271 860.0097593446 194.7685532926)" id="i1pUT3IxqNrp7fEBGkEaI"  >
<path style="stroke: rgb(255,255,255); stroke-width: 0; stroke-dasharray: none; stroke-linecap: butt; stroke-dashoffset: 0; stroke-linejoin: miter; stroke-miterlimit: 4; fill: rgb(255,255,255); fill-rule: nonzero; opacity: 1;" vector-effect="non-scaling-stroke"  transform=" translate(0, -0.000005)" d="M 1.21951 -75.85366 L -26.09756 -61.21951000000001 L -28.04878 57.31708 L 1.2195099999999996 75.85367 L 28.04878 60.24390999999999 L 28.04878 -61.219500000000004 z" stroke-linecap="round" />
</g>
<g transform="matrix(0.8241030122 0 0 0.8241030122 719.4010465075 194.768556471)" id="heTrDVWpdSZBvUh5vaS2-"  >
<path style="stroke: rgb(255,255,255); stroke-width: 0; stroke-dasharray: none; stroke-linecap: butt; stroke-dashoffset: 0; stroke-linejoin: miter; stroke-miterlimit: 4; fill: rgb(255,255,255); fill-rule: nonzero; opacity: 1;" vector-effect="non-scaling-stroke"  transform=" translate(0.0000082123, -0.0000027778)" d="M -56.41839 -84.72222 L 93.58161 -84.72222 L 82.52392 -47.22221999999999 L -29.49530999999999 -47.22221999999999 C -29.49530999999999 -47.22221999999999 -45.36068999999999 -33.279909999999994 -29.49530999999999 -19.818369999999994 C -5.456849999999989 -19.818369999999994 73.87007000000001 -19.818369999999994 73.87007000000001 -19.818369999999994 C 73.87007000000001 -19.818369999999994 90.69699000000001 -17.895289999999996 93.58161000000001 -2.5106799999999936 C 94.06238000000002 12.873940000000006 93.58161000000001 62.39317000000001 93.58161000000001 62.39317000000001 C 93.58161000000001 62.39317000000001 83.96623000000001 80.18163000000001 67.13930000000002 84.50855000000001 C 50.79315000000002 84.98932000000002 -93.43761999999998 84.50855000000001 -93.43761999999998 84.50855000000001 L -77.57223999999998 45.566240000000015 L 33.485450000000014 45.566240000000015 C 33.485450000000014 45.566240000000015 41.17776000000001 45.566240000000015 43.581600000000016 39.316240000000015 C 43.581600000000016 33.066240000000015 43.581600000000016 26.335470000000015 43.581600000000016 26.335470000000015 C 43.581600000000016 26.335470000000015 46.466220000000014 21.047010000000014 37.812370000000016 19.604700000000015 C 28.196990000000014 20.085470000000015 -70.84147999999999 19.604700000000015 -70.84147999999999 19.604700000000015 C -70.84147999999999 19.604700000000015 -92.47609999999999 12.393160000000016 -93.43762999999998 -2.510679999999983 C -94.39916999999998 -17.414529999999985 -93.07704999999999 -28.592409999999983 -93.43762999999998 -51.54913999999998 C -87.54820999999998 -79.79432999999997 -56.418399999999984 -84.72221999999998 -56.418399999999984 -84.72221999999998 z" stroke-linecap="round" />
</g>
<g transform="matrix(1 0 0 0.9806709347 526.0228998805 192.6080646016)" id="L21xX1G4fyC-7EINK92nl"  >
<path style="stroke: rgb(255,255,255); stroke-width: 0; stroke-dasharray: none; stroke-linecap: butt; stroke-dashoffset: 0; stroke-linejoin: miter; stroke-miterlimit: 4; fill: rgb(255,255,255); fill-rule: nonzero; opacity: 1;" vector-effect="non-scaling-stroke"  transform=" translate(0, 0.000005)" d="M -83.4507 -68.99291 L -83.4507 68.99291 L -27.816899999999997 68.99291 L -27.816899999999997 -26.942880000000002 L 21.76319 -26.942880000000002 C 21.76319 -26.942880000000002 32.746480000000005 -26.238650000000003 30.6338 -12.858370000000003 C 31.33803 0.5219099999999983 30.6338 68.49291 30.6338 68.49291 L 83.4507 68.99291 L 83.4507 -41.73161 C 83.4507 -41.73161 82.04225 -62.15415 58.09859 -65.67527000000001 C 33.4507 -69.19640000000001 0.35211000000000325 -65.67527000000001 0.35211000000000325 -65.67527000000001 C 0.35211000000000325 -65.67527000000001 -24.833649999999995 -63.70677000000001 -35.563379999999995 -55.81612000000001 C -36.26761 -60.745700000000014 -35.563379999999995 -68.99292000000001 -35.563379999999995 -68.99292000000001 z" stroke-linecap="round" />
</g>
<g transform="matrix(1 0 0 0.9841798797 322.8779997786 192.3580667615)" id="lBAWbM9UK0mACV6jljvY9"  >
<path style="stroke: rgb(0,0,0); stroke-width: 0; stroke-dasharray: none; stroke-linecap: butt; stroke-dashoffset: 0; stroke-linejoin: miter; stroke-miterlimit: 4; fill: rgb(255,255,255); fill-rule: nonzero; opacity: 1;" vector-effect="non-scaling-stroke"  transform=" translate(-83.8955038889, -68.4929145524)" d="M 21.95767 0.20004 C 21.95767 0.20004 126.12433999999999 0.20004 145.17196 0.20004 C 164.21958 0.20004 167.79101000000003 16.86671 167.79101000000003 16.86671 C 167.79101000000003 16.86671 167.79101000000003 113.89052 167.79101000000003 124.60481 C 164.81482000000003 134.72386 154.69577000000004 136.98583 154.69577000000004 136.98583 C 154.69577000000004 136.98583 28.505290000000045 135.79534999999998 14.219580000000036 136.98583 C -0.6613799999999639 131.03345 0.5291000000000352 118.05718999999999 0.5291000000000352 118.05718999999999 C 0.5291000000000352 118.05718999999999 -0.6613799999999648 46.33099999999999 0.5291000000000352 16.866709999999998 C 3.505290000000035 -3.073770000000003 21.957670000000036 0.20003999999999778 21.957670000000036 0.20003999999999778 z M 52.74619 51.7636 C 51.95596 63.97624999999999 52.45883 76.52537 52.74619 86.00813 C 53.03355 95.49089 63.953089999999996 97.21503 63.953089999999996 97.21503 C 63.953089999999996 97.21503 88.37836999999999 98.0771 100.44734 97.21503 C 111.9416 94.91618 113.95309 86.00813 113.95309 86.00813 C 113.95309 86.00813 114.5278 64.11992 113.95309 51.7636 C 113.37837 39.40728 100.44734 38.306979999999996 100.44734 38.306979999999996 L 63.953089999999996 38.306979999999996 C 63.953089999999996 38.306979999999996 52.96171 38.97624 52.74619 51.7636 z" stroke-linecap="round" />
</g>
<g transform="matrix(1 0 0 1.335888417 111.1218657404 146.0879722925)" id="H_YLgl7mzG3Km1l-yD5lQ"  >
<path style="stroke: rgb(255,255,255); stroke-width: 0; stroke-dasharray: none; stroke-linecap: butt; stroke-dashoffset: 0; stroke-linejoin: miter; stroke-miterlimit: 4; fill: rgb(255,255,255); fill-rule: nonzero; opacity: 1;" vector-effect="non-scaling-stroke"  transform=" translate(0.0000082123, -0.0000027778)" d="M -56.41839 -84.72222 L 93.58161 -84.72222 L 82.52392 -47.22221999999999 L -29.49530999999999 -47.22221999999999 C -29.49530999999999 -47.22221999999999 -45.36068999999999 -33.279909999999994 -29.49530999999999 -19.818369999999994 C -5.456849999999989 -19.818369999999994 73.87007000000001 -19.818369999999994 73.87007000000001 -19.818369999999994 C 73.87007000000001 -19.818369999999994 90.69699000000001 -17.895289999999996 93.58161000000001 -2.5106799999999936 C 94.06238000000002 12.873940000000006 93.58161000000001 62.39317000000001 93.58161000000001 62.39317000000001 C 93.58161000000001 62.39317000000001 83.96623000000001 80.18163000000001 67.13930000000002 84.50855000000001 C 50.79315000000002 84.98932000000002 -93.43761999999998 84.50855000000001 -93.43761999999998 84.50855000000001 L -77.57223999999998 45.566240000000015 L 33.485450000000014 45.566240000000015 C 33.485450000000014 45.566240000000015 41.17776000000001 45.566240000000015 43.581600000000016 39.316240000000015 C 43.581600000000016 33.066240000000015 43.581600000000016 26.335470000000015 43.581600000000016 26.335470000000015 C 43.581600000000016 26.335470000000015 46.466220000000014 21.047010000000014 37.812370000000016 19.604700000000015 C 28.196990000000014 20.085470000000015 -70.84147999999999 19.604700000000015 -70.84147999999999 19.604700000000015 C -70.84147999999999 19.604700000000015 -92.47609999999999 12.393160000000016 -93.43762999999998 -2.510679999999983 C -94.39916999999998 -17.414529999999985 -93.07704999999999 -28.592409999999983 -93.43762999999998 -51.54913999999998 C -87.54820999999998 -79.79432999999997 -56.418399999999984 -84.72221999999998 -56.418399999999984 -84.72221999999998 z" stroke-linecap="round" />
</g>
</svg>